# xmcd
#
# Track frame offsets: 
#        150
#        14064
#        24732
#        36534
#        45114
#        56820
#        65055
#        81288
#        101126
#        111806
#        128013
#        142728
#        157057
#        168286
#        178572
#        190562
#        198997
#        209806
#        218495
#
# Disc length: 3317 seconds
#
# Revision: 0
# Processed by: cddbd v1.5.2PL0 Copyright (c) Steve Scherf et al.
# Submitted via: ExactAudioCopy v1.0b3
#
DISCID=120cf313
DTITLE=Mr Boogie Woogie - Tribute to Fats Domino
DYEAR=2011
DGENRE=Blues
TTITLE0=I'm Walking
TTITLE1=The Fat Man
TTITLE2=Blue Monday
TTITLE3=I'm ready
TTITLE4=I want to walk You home
TTITLE5=Be my Guest
TTITLE6=I'm in love again
TTITLE7=Let the Four Winds Blow
TTITLE8=I Hear You knocking
TTITLE9=Shake, Rattle and Roll
TTITLE10=Blueberry Hill
TTITLE11=Jambalaya
TTITLE12=Poor Me
TTITLE13=I'm Gonna be a Wheel Someday
TTITLE14=Red Sails in the Sunset
TTITLE15=Whole Lotta Loving
TTITLE16=Walking to New Orleans
TTITLE17=Hello Josephine
TTITLE18=Please Don't Leave me
EXTD=
EXTT0=
EXTT1=
EXTT2=
EXTT3=
EXTT4=
EXTT5=
EXTT6=
EXTT7=
EXTT8=
EXTT9=
EXTT10=
EXTT11=
EXTT12=
EXTT13=
EXTT14=
EXTT15=
EXTT16=
EXTT17=
EXTT18=
PLAYORDER=
